<svg xmlns="http://www.w3.org/2000/svg" width="604" height="528" fill-rule="evenodd" xmlns:v="https://vecta.io/nano"><path d="M302 0c166.808 0 302 109.725 302 245.143S468.808 490.286 302 490.286c-45.3 0-88.123-8.367-126.7-22.865C146.28 490.522 87.65 528 9.438 528c-3.775 0-7.078-2.12-8.61-5.657S0 514.8 2.596 512.09c.6-.59 49.9-53.508 64.647-112.907C25.246 357.107 0 303.6 0 245.143 0 109.725 135.192 0 302 0z" fill="#39211e"/><path d="M196.007 126c3.037 0 5.445.912 7.226 2.735s2.67 4.246 2.67 7.268v91.75c0 3.022-.916 5.47-2.75 7.346s-4.215 2.813-7.147 2.813c-3.037 0-5.445-.938-7.226-2.813s-2.67-4.324-2.67-7.346v-38.607h-56.706v38.607c0 3.022-.916 5.47-2.75 7.346s-4.267 2.813-7.304 2.813c-2.932 0-5.315-.938-7.147-2.813s-2.75-4.324-2.75-7.346v-91.75c0-3.022.9-5.445 2.67-7.268s4.19-2.735 7.226-2.735 5.472.912 7.304 2.735 2.75 4.246 2.75 7.268v36.887h56.706v-36.887c0-3.022.9-5.445 2.67-7.268s4.19-2.735 7.226-2.735zm70.058 111.756c-3.142 0-5.63-.912-7.46-2.735s-2.75-4.246-2.75-7.268V143.35h-28.588c-6.283 0-9.425-2.76-9.425-8.284s3.142-8.284 9.425-8.284h77.44c6.283 0 9.425 2.76 9.425 8.284s-3.142 8.284-9.425 8.284h-28.588v84.403c0 3.022-.916 5.445-2.75 7.268s-4.267 2.735-7.304 2.735zM424.4 126c2.932 0 5.288.912 7.07 2.735s2.67 4.246 2.67 7.268v92.53c0 2.918-.838 5.2-2.513 6.877s-3.875 2.5-6.597 2.5-4.87-.834-6.44-2.5-2.356-3.96-2.356-6.877v-64.396l-26.704 50.33c-1.257 2.292-2.618 3.986-4.084 5.08s-3.194 1.64-5.184 1.64-3.718-.52-5.184-1.563-2.827-2.76-4.084-5.158l-26.86-49.548v63.615c0 2.813-.812 5.08-2.435 6.8s-3.796 2.58-6.52 2.58-4.87-.834-6.44-2.5-2.356-3.96-2.356-6.877v-92.53c0-3.022.864-5.445 2.592-7.268s4.058-2.735 7-2.735c4.084 0 7.278 2.24 9.582 6.72l34.872 66.116 34.715-66.116c2.304-4.48 5.393-6.72 9.268-6.72zm43.354 110.975c-3.037 0-5.393-.834-7.07-2.5s-2.513-3.96-2.513-6.877v-91.593c0-3.022.916-5.445 2.75-7.268S465.19 126 468.226 126c3.142 0 5.63.912 7.46 2.735s2.75 4.246 2.75 7.268v84.403h44.14c6.283 0 9.425 2.76 9.425 8.284s-3.142 8.284-9.425 8.284h-54.82zM158.936 386c-10.68 0-20.028-2.292-28.04-6.877s-14.163-11.15-18.457-19.694-6.44-18.548-6.44-30 2.147-21.44 6.44-29.932 10.446-15.03 18.457-19.616 17.357-6.877 28.04-6.877c6.912 0 13.404 1.016 19.478 3.048s11.467 4.976 16.18 8.83c1.36 1.042 2.304 2.136 2.827 3.282s.785 2.553.785 4.22c0 2.292-.628 4.22-1.885 5.783s-2.775 2.345-4.555 2.345c-2.094 0-4.24-.73-6.44-2.188-4.503-3.334-8.692-5.653-12.566-6.955s-8.168-1.954-12.88-1.954c-10.89 0-19.138 3.387-24.74 10.16s-8.404 16.724-8.404 29.854c0 13.234 2.8 23.237 8.404 30s13.85 10.16 24.74 10.16c4.503 0 8.666-.677 12.488-2.032s8.142-3.647 12.96-6.877c1.047-.625 2.094-1.146 3.142-1.563s2.147-.625 3.3-.625c1.78 0 3.3.782 4.555 2.345s1.885 3.49 1.885 5.783c0 1.563-.262 2.944-.785 4.142s-1.466 2.318-2.827 3.36c-4.712 3.855-10.105 6.8-16.18 8.83S165.847 386 158.936 386zm93.305 0c-8.063 0-15.682-1.068-22.855-3.204s-13.01-5.028-17.514-8.675c-2.41-1.77-3.613-4.272-3.613-7.503 0-2.188.654-4.1 1.963-5.705s2.854-2.423 4.634-2.423c1.885 0 4.032.73 6.44 2.188 4.503 3.23 9.215 5.575 14.137 7.034S245.8 369.9 251.77 369.9c7.645 0 13.51-1.33 17.593-3.986s6.126-6.54 6.126-11.645c0-3.96-1.91-7.008-5.733-9.144s-10.184-4.194-19.085-6.174c-9.215-1.98-16.703-4.272-22.462-6.877s-10.105-5.94-13.038-10.003-4.398-9.222-4.398-15.474c0-6.46 1.833-12.244 5.498-17.35s8.77-9.092 15.315-11.957 13.902-4.298 22.07-4.298c14.975 0 27.175 3.96 36.6 11.88 1.36 1.146 2.33 2.266 2.906 3.36s.864 2.475.864 4.142c0 2.188-.654 4.1-1.963 5.705s-2.854 2.423-4.634 2.423c-1.047 0-2.016-.156-2.906-.47s-2.068-.886-3.534-1.72c-4.294-3.126-8.456-5.445-12.488-6.955s-8.98-2.266-14.844-2.266c-7.12 0-12.75 1.433-16.886 4.298s-6.205 6.85-6.205 11.957c0 4.272 1.833 7.555 5.498 9.847s9.896 4.43 18.692 6.408c9.32 2.084 16.886 4.402 22.698 6.955s10.263 5.81 13.352 9.77 4.634 8.91 4.634 14.85c0 6.46-1.806 12.165-5.42 17.115s-8.692 8.805-15.237 11.566S260.723 386 252.24 386zm100.217 0c-8.063 0-15.682-1.068-22.855-3.204s-13.01-5.028-17.514-8.675c-2.41-1.77-3.613-4.272-3.613-7.503 0-2.188.654-4.1 1.963-5.705s2.854-2.423 4.634-2.423c1.885 0 4.032.73 6.44 2.188 4.503 3.23 9.215 5.575 14.137 7.034s10.367 2.188 16.336 2.188c7.645 0 13.51-1.33 17.593-3.986s6.126-6.54 6.126-11.645c0-3.96-1.91-7.008-5.733-9.144s-10.184-4.194-19.085-6.174c-9.215-1.98-16.703-4.272-22.462-6.877s-10.105-5.94-13.038-10.003-4.398-9.222-4.398-15.474c0-6.46 1.833-12.244 5.498-17.35s8.77-9.092 15.315-11.957 13.902-4.298 22.07-4.298c14.975 0 27.175 3.96 36.6 11.88 1.36 1.146 2.33 2.266 2.906 3.36s.864 2.475.864 4.142c0 2.188-.654 4.1-1.963 5.705s-2.854 2.423-4.634 2.423c-1.047 0-2.016-.156-2.906-.47s-2.068-.886-3.534-1.72c-4.294-3.126-8.456-5.445-12.488-6.955s-8.98-2.266-14.844-2.266c-7.12 0-12.75 1.433-16.886 4.298s-6.205 6.85-6.205 11.957c0 4.272 1.833 7.555 5.498 9.847s9.896 4.43 18.692 6.408c9.32 2.084 16.886 4.402 22.698 6.955s10.263 5.81 13.352 9.77 4.634 8.91 4.634 14.85c0 6.46-1.806 12.165-5.42 17.115s-8.692 8.805-15.237 11.566S360.94 386 352.458 386z" fill="#fade4b"/></svg>