<svg width="139" height="161" viewBox="0 0 139 161" fill="none" xmlns="http://www.w3.org/2000/svg">
<path d="M14.3393 149.835C15.9626 149.835 17.2786 148.511 17.2786 146.879C17.2786 145.246 15.9626 143.923 14.3393 143.923C12.716 143.923 11.4 145.246 11.4 146.879C11.4 148.511 12.716 149.835 14.3393 149.835Z" fill="white" stroke="#303030" stroke-width="2" stroke-miterlimit="10" stroke-linecap="round" stroke-linejoin="round"/>
<path d="M15.6903 149.835C17.3136 149.835 18.6295 148.511 18.6295 146.879C18.6295 145.246 17.3136 143.923 15.6903 143.923C14.0669 143.923 12.751 145.246 12.751 146.879C12.751 148.511 14.0669 149.835 15.6903 149.835Z" fill="white" stroke="#303030" stroke-width="2" stroke-miterlimit="10" stroke-linecap="round" stroke-linejoin="round"/>
<path d="M60.0015 153.993C61.6248 153.993 62.9408 152.67 62.9408 151.037C62.9408 149.405 61.6248 148.082 60.0015 148.082C58.3782 148.082 57.0623 149.405 57.0623 151.037C57.0623 152.67 58.3782 153.993 60.0015 153.993Z" fill="white" stroke="#303030" stroke-width="2" stroke-miterlimit="10" stroke-linecap="round" stroke-linejoin="round"/>
<path d="M61.3526 153.993C62.9759 153.993 64.2918 152.67 64.2918 151.037C64.2918 149.405 62.9759 148.082 61.3526 148.082C59.7292 148.082 58.4133 149.405 58.4133 151.037C58.4133 152.67 59.7292 153.993 61.3526 153.993Z" fill="white" stroke="#303030" stroke-width="2" stroke-miterlimit="10" stroke-linecap="round" stroke-linejoin="round"/>
<path d="M106.558 147.377L107.185 160H68.436L70.9462 151.007L72.0751 147.377H106.558Z" fill="white" stroke="#303030" stroke-width="2" stroke-miterlimit="10" stroke-linecap="round" stroke-linejoin="round"/>
<path d="M95.8906 91.8423H83.026V153.687H95.8906V91.8423Z" fill="white" stroke="#303030" stroke-width="2" stroke-miterlimit="10" stroke-linecap="round" stroke-linejoin="round"/>
<path d="M71.4301 148.877H63.0352L63.7502 140.404L71.4301 140.707V148.877Z" fill="white" stroke="#303030" stroke-width="2" stroke-miterlimit="10" stroke-linecap="round" stroke-linejoin="round"/>
<path d="M35.0877 116.156H31.3512V132.475H35.0877V116.156Z" fill="white" stroke="#303030" stroke-width="2" stroke-miterlimit="10" stroke-linecap="round" stroke-linejoin="round"/>
<path d="M35.8484 131.79H30.3928V133.712L3.85713 147.843V150.792H5.76492V149.146L31.5521 139.749L34.963 153.675H36.3261L35.6445 139.269L59.7247 146.815V148.185H62.2502V145.649L35.8484 133.436V131.79Z" fill="white" stroke="#303030" stroke-width="2" stroke-miterlimit="10" stroke-linecap="round" stroke-linejoin="round"/>
<path d="M34.7286 158.88C36.3519 158.88 37.6679 157.557 37.6679 155.924C37.6679 154.292 36.3519 152.968 34.7286 152.968C33.1053 152.968 31.7894 154.292 31.7894 155.924C31.7894 157.557 33.1053 158.88 34.7286 158.88Z" fill="white" stroke="#303030" stroke-width="2" stroke-miterlimit="10" stroke-linecap="round" stroke-linejoin="round"/>
<path d="M36.0797 158.88C37.703 158.88 39.0189 157.557 39.0189 155.924C39.0189 154.292 37.703 152.968 36.0797 152.968C34.4564 152.968 33.1404 154.292 33.1404 155.924C33.1404 157.557 34.4564 158.88 36.0797 158.88Z" fill="white" stroke="#303030" stroke-width="2" stroke-miterlimit="10" stroke-linecap="round" stroke-linejoin="round"/>
<path d="M45.7676 149.835C47.391 149.835 48.7069 148.511 48.7069 146.879C48.7069 145.246 47.391 143.923 45.7676 143.923C44.1443 143.923 42.8284 145.246 42.8284 146.879C42.8284 148.511 44.1443 149.835 45.7676 149.835Z" fill="white" stroke="#303030" stroke-width="2" stroke-miterlimit="10" stroke-linecap="round" stroke-linejoin="round"/>
<path d="M47.1187 149.835C48.742 149.835 50.0579 148.511 50.0579 146.879C50.0579 145.246 48.742 143.923 47.1187 143.923C45.4954 143.923 44.1794 145.246 44.1794 146.879C44.1794 148.511 45.4954 149.835 47.1187 149.835Z" fill="white" stroke="#303030" stroke-width="2" stroke-miterlimit="10" stroke-linecap="round" stroke-linejoin="round"/>
<path d="M56.329 118.133H23.8752C20.4522 118.133 17.6802 115.343 17.6802 111.903C17.6802 108.461 20.4552 105.673 23.8752 105.673H56.329C59.7521 105.673 62.524 108.464 62.524 111.903C62.524 115.343 59.7521 118.133 56.329 118.133Z" fill="#45D62F" stroke="#303030" stroke-width="2" stroke-linecap="round" stroke-linejoin="round"/>
<path d="M3.93928 155.777C5.5626 155.777 6.87856 154.454 6.87856 152.821C6.87856 151.189 5.5626 149.865 3.93928 149.865C2.31596 149.865 1 151.189 1 152.821C1 154.454 2.31596 155.777 3.93928 155.777Z" fill="white" stroke="#303030" stroke-width="2" stroke-miterlimit="10" stroke-linecap="round" stroke-linejoin="round"/>
<path d="M5.28717 155.777C6.91049 155.777 8.22645 154.454 8.22645 152.821C8.22645 151.189 6.91049 149.865 5.28717 149.865C3.66385 149.865 2.3479 151.189 2.3479 152.821C2.3479 154.454 3.66385 155.777 5.28717 155.777Z" fill="white" stroke="#303030" stroke-width="2" stroke-miterlimit="10" stroke-linecap="round" stroke-linejoin="round"/>
<path d="M48.9869 93.2465C48.9869 93.2465 70.1582 96.8603 75.0479 99.1645C79.9406 101.472 78.5622 106.16 78.5622 114.076C78.5622 121.992 77.7224 140.899 77.7224 140.899C77.7224 140.899 73.9008 142.745 70.6146 142.898C67.3285 143.051 61.8242 142.053 61.8242 142.053C61.8242 142.053 62.9713 125.373 63.2756 121.224C63.5798 117.075 64.3466 111.692 64.1154 111.233C63.8872 110.771 30.5297 112.194 27.0062 109.575C22.3783 106.138 22.6917 101.01 24.9098 93.938C27.128 86.8664 48.9869 93.2465 48.9869 93.2465Z" fill="#303030"/>
<path d="M87.6174 21.9614L86.8263 40.3488L113.109 43.7974L117.065 23.112C117.065 23.112 112.495 23.9963 102.737 23.2895C93.7941 22.6377 87.6174 21.9614 87.6174 21.9614Z" fill="white" stroke="#303030" stroke-width="2" stroke-miterlimit="10" stroke-linecap="round" stroke-linejoin="round"/>
<path d="M78.9152 28.415C78.827 28.5038 90.1673 37.4328 90.1673 37.4328C90.1673 37.4328 89.6409 46.7167 88.0586 52.9928C86.4764 59.2688 86.9146 62.0105 86.9146 62.0105L75.1362 46.7167C75.1362 46.7167 76.9831 43.4456 77.4213 39.5564C77.8594 35.6672 78.9152 28.415 78.9152 28.415Z" fill="#A7CCE9"/>
<path d="M114.366 1.50857C114.366 1.50857 115.775 5.11933 118.872 7.31334C120.622 8.55262 126.132 10.3366 131.192 11.5483C135.093 12.4816 139 13.0263 139 13.0263C139 13.0263 134.494 7.92839 133.228 5.59363C131.962 3.25887 130.763 0 130.763 0C130.763 0 114.512 1.88494 114.366 1.50857Z" fill="#A7CCE9"/>
<path d="M117.01 5.69165C117.01 5.69165 120.129 7.45114 122.603 6.99214C125.076 6.53314 125.722 5.99765 125.722 5.99765C125.722 5.99765 128.004 10.5876 130.629 11.3924C133.255 12.1972 124.666 10.5111 121.468 9.05762C119.043 7.95297 117.01 5.69165 117.01 5.69165Z" fill="#3B82F6"/>
<path d="M111.141 27.4753L130.018 28.6473C130.018 28.6473 128.104 41.3584 123.862 46.1259C119.621 50.8933 112.969 52.1479 112.969 52.1479L101.243 49.9723L111.141 27.4753Z" fill="white" stroke="#303030" stroke-width="2" stroke-miterlimit="10" stroke-linecap="round" stroke-linejoin="round"/>
<path d="M112.969 52.1482L115.464 47.2981L122.95 46.9646" fill="white"/>
<path d="M112.969 52.1482L115.464 47.2981L122.95 46.9646" stroke="#303030" stroke-width="2" stroke-miterlimit="10" stroke-linecap="round" stroke-linejoin="round"/>
<path d="M132.495 96.5544H51.345V99.0024H132.495V96.5544Z" fill="white" stroke="#303030" stroke-width="2" stroke-miterlimit="10" stroke-linecap="round" stroke-linejoin="round"/>
<path d="M132.498 96.5544L124.483 81.2514C124.483 81.2514 59.9681 80.8445 59.9681 81.2514C59.9681 81.6584 51.345 96.5544 51.345 96.5544H132.498Z" fill="white" stroke="#303030" stroke-width="2" stroke-miterlimit="10" stroke-linecap="round" stroke-linejoin="round"/>
<path d="M31.9263 45.0518L31.9749 46.5144" stroke="#303030" stroke-width="2" stroke-linecap="round" stroke-linejoin="round"/>
<path d="M106.638 72.7937C106.638 72.7937 107.675 77.1174 110.937 80.1713C114.199 83.2282 116.867 84.9418 116.867 84.9418C116.867 84.9418 102.858 84.5684 98.7842 84.7918C94.707 85.0152 91.9655 81.6615 89.1479 78.9779C86.3303 76.2943 83.3667 73.6107 83.2937 73.6872C83.2207 73.7606 93.8915 73.9105 98.5621 73.3139C103.23 72.7202 106.638 72.7937 106.638 72.7937Z" fill="white" stroke="#303030" stroke-width="2" stroke-miterlimit="10" stroke-linecap="round" stroke-linejoin="round"/>
<path d="M106.945 90.4619C106.945 90.4619 110.76 82.4999 110.55 82.6437C110.337 82.7845 115.498 83.7086 119.243 82.2888C122.989 80.8659 127.301 77.3132 127.301 77.3132C127.301 77.3132 130.127 78.6627 132.744 81.8634C135.361 85.0641 136.56 88.1884 136.56 88.1884C136.56 88.1884 131.046 91.4595 121.504 91.8145C111.962 92.1664 106.945 90.4619 106.945 90.4619Z" fill="white" stroke="#303030" stroke-width="2" stroke-miterlimit="10" stroke-linecap="round" stroke-linejoin="round"/>
<path d="M41.6965 33.4272C41.6965 33.4272 43.8538 36.2057 43.9877 37.1543C44.1215 38.1029 43.9207 39.3911 43.9207 39.3911L46.3458 41.9676L45.2686 43.0509C45.2686 43.0509 45.6733 44.4064 45.4025 45.762C45.1317 47.1176 44.6571 47.2308 44.6571 47.2308" stroke="#303030" stroke-width="2" stroke-linecap="round" stroke-linejoin="round"/>
<path d="M42.3659 37.6133C43.0779 37.292 43.9907 37.1543 43.9907 37.1543" stroke="#303030" stroke-width="2" stroke-linecap="round" stroke-linejoin="round"/>
<path d="M45.3538 44.9265C45.3538 44.9265 44.5353 45.1774 43.6651 45.0856" stroke="#303030" stroke-width="2" stroke-linecap="round" stroke-linejoin="round"/>
<path d="M42.8436 39.4186C42.798 39.4645 42.9562 40.0306 43.3822 40.052C43.8082 40.0734 43.9208 39.391 43.9208 39.391C43.0019 38.8096 42.159 40.0489 42.159 40.0489" stroke="#303030" stroke-width="2" stroke-linecap="round" stroke-linejoin="round"/>
<path d="M35.9913 40.9729C35.9913 40.9729 37.2906 40.0121 36.7125 38.9594C36.0918 37.8334 36.3869 36.6981 36.6881 36.3217C37.4975 35.3119 41.5839 36.389 42.588 33.8278C43.5464 31.386 41.3983 28.02 41.3983 28.02C41.3983 28.02 40.0047 30.2079 36.107 30.0212C33.8766 29.9172 29.0904 31.2667 27.7242 34.8988C26.6106 37.8578 26.9088 40.1406 28.132 41.643C29.3551 43.1455 30.5783 44.6051 30.8065 45.0151C31.0317 45.4251 32.0297 45.6546 32.6656 45.2875C33.3016 44.9233 34.3757 44.091 34.1961 43.6351C34.0136 43.1791 33.1859 42.1755 33.3807 41.4808C33.7002 40.3517 35.9913 40.9729 35.9913 40.9729Z" fill="#303030"/>
<path d="M64.6265 32.0469C64.6265 32.0469 66.5009 29.8162 66.8447 28.1607C67.1885 26.5053 67.6419 24.5591 68.0953 23.3596C68.5486 22.1601 68.7768 19.8162 69.1754 19.5285C69.574 19.2439 70.2556 19.9845 70.3682 20.5567C70.4808 21.1289 70.1978 22.4998 70.1978 22.4998C70.1978 22.4998 76.3654 18.1424 77.2752 18.0016C78.1819 17.8608 78.6353 18.4239 78.6353 18.4239C78.6353 18.4239 79.7885 17.9679 80.4487 18.3535C81.112 18.739 80.6222 19.7213 80.6222 19.7213C80.6222 19.7213 81.2155 20.0365 81.3189 20.6332C81.4224 21.2299 81.039 21.6154 81.039 21.6154C81.039 21.6154 81.249 22.4569 81.1425 22.9832C81.036 23.5095 76.9891 28.1791 75.0357 29.4765C73.0823 30.7739 71.5792 31.4073 70.8489 32.2488C70.1156 33.0903 68.0222 35.8627 68.0222 35.8627" stroke="#303030" stroke-width="2" stroke-linecap="round" stroke-linejoin="round"/>
<path d="M78.6322 18.4243L73.7821 22.4268" stroke="#303030" stroke-width="2" stroke-linecap="round" stroke-linejoin="round"/>
<path d="M80.5887 19.6877L75.7355 23.6902" stroke="#303030" stroke-width="2" stroke-linecap="round" stroke-linejoin="round"/>
<path d="M81.112 21.5483L76.2588 25.5508" stroke="#303030" stroke-width="2" stroke-linecap="round" stroke-linejoin="round"/>
<path d="M61.879 34.394C61.879 34.394 52.0631 42.6743 50.5235 44.0268C49.5498 44.8806 42.3842 47.3285 42.1499 47.3285C41.9156 47.3285 38.9155 45.6211 37.0411 45.3855C35.1668 45.1498 29.7264 47.6162 28.8471 48.2649C27.9677 48.9136 25.8956 50.3671 25.0832 52.5764C24.5051 54.1492 22.6795 62.656 22.8559 65.8414C23.0324 69.0238 22.2018 99.5684 22.2018 99.5684C22.2018 99.5684 28.8684 100.027 31.8107 100.113C34.753 100.199 45.223 100.636 47.213 99.6786C49.2029 98.7208 51.7984 92.2826 51.7984 92.2826C51.7984 92.2826 53.0094 76.4442 52.6625 73.7453C52.3157 71.0464 50.9312 65.2172 50.846 63.9106C50.7608 62.6039 49.0295 56.6003 49.0295 56.6003C49.0295 56.6003 54.1565 53.2527 56.2195 51.6615C58.2824 50.0703 61.4317 47.5856 63.1295 46.0648C65.1712 44.238 68.2352 41.3279 68.2352 41.3279L61.9246 34.394H61.879Z" fill="#3B82F6" stroke="#231F20" stroke-width="2" stroke-miterlimit="10" stroke-linecap="round" stroke-linejoin="round"/>
<path d="M61.9276 34.3943L64.0849 32.1758L68.8955 37.7205L67.0729 39.7951" stroke="#303030" stroke-width="2" stroke-linecap="round" stroke-linejoin="round"/>
<path d="M49.0295 56.5972C49.0295 56.5972 43.2787 59.6327 39.8282 60.9821C36.3808 62.3316 34.6556 62.3958 34.6556 62.3958" stroke="#303030" stroke-width="2" stroke-linecap="round" stroke-linejoin="round"/>
<path d="M65.4542 80.2631C65.4542 80.2631 74.485 80.3212 76.2041 80.2631C77.9233 80.2049 79.4964 81.5513 80.4274 82.2857C81.3585 83.017 82.6121 84.1615 82.6121 84.1615C82.6121 84.1615 82.0005 84.4246 81.3311 84.4246C80.6617 84.4246 78.3584 83.4271 77.9233 83.222C77.4851 83.017 78.2154 83.779 77.9537 84.189C77.692 84.599 76.4689 84.6572 75.3887 84.5684C74.3116 84.4797 71.4544 84.394 70.2039 84.4216C68.9503 84.4522 67.7849 83.9809 66.9695 83.8646C66.154 83.7484 65.6002 83.9809 65.5424 83.8952C65.4816 83.8096 65.4542 80.2631 65.4542 80.2631Z" fill="white" stroke="#303030" stroke-width="2" stroke-miterlimit="10" stroke-linecap="round" stroke-linejoin="round"/>
<path d="M77.9232 83.2221C77.9232 83.2221 77.3117 82.812 75.6229 82.6958C73.9342 82.5795 73.2922 82.4326 73.2922 82.4326" fill="white"/>
<path d="M77.9232 83.2221C77.9232 83.2221 77.3117 82.812 75.6229 82.6958C73.9342 82.5795 73.2922 82.4326 73.2922 82.4326" stroke="#303030" stroke-width="2" stroke-miterlimit="10" stroke-linecap="round" stroke-linejoin="round"/>
<path d="M52.5773 77.3379C52.5773 77.6041 66.0688 79.3391 66.0688 79.3391L66.3335 85.5172L52.1513 86.4597L52.5773 77.3379Z" fill="#3B82F6" stroke="#231F20" stroke-width="2" stroke-miterlimit="10" stroke-linecap="round" stroke-linejoin="round"/>
<path d="M37.3454 114.333C36.2592 114.333 35.3798 113.449 35.3798 112.356V97.9987C35.3798 96.9063 36.2592 96.022 37.3454 96.022C38.4317 96.022 39.311 96.9063 39.311 97.9987V112.356C39.311 113.449 38.4286 114.333 37.3454 114.333Z" fill="#45D62F" stroke="#303030" stroke-width="2" stroke-linecap="round" stroke-linejoin="round"/>
<path d="M46.5953 97.353H29.0175C28.1747 97.353 27.49 96.6645 27.49 95.8169C27.49 94.9693 28.1747 94.2808 29.0175 94.2808H46.5953C47.4382 94.2808 48.1228 94.9693 48.1228 95.8169C48.1228 96.6675 47.4382 97.353 46.5953 97.353Z" fill="#45D62F" stroke="#303030" stroke-width="2" stroke-linecap="round" stroke-linejoin="round"/>
<path d="M63.0991 146.414C63.0991 146.414 61.6781 148.317 61.6112 150.63C61.5443 152.944 61.6781 154.642 61.6781 154.642L68.0344 154.981L68.5091 154.164C68.5091 154.164 70.9432 154.571 73.2436 154.844C75.5439 155.116 81.0877 154.844 83.7258 154.027C86.3638 153.21 88.0556 152.665 88.2564 151.918C88.4602 151.169 87.9186 149.538 87.9186 149.538C87.9186 149.538 83.3211 149.605 80.9538 149.333C78.5866 149.06 74.056 145.863 73.5144 145.388C72.9728 144.914 71.8926 143.892 71.284 144.504C70.6755 145.116 69.1207 146.068 69.1207 146.68C69.1207 147.292 68.5121 147.359 67.362 147.497C66.2088 147.638 63.0991 146.414 63.0991 146.414Z" fill="#E72A8B"/>
<path d="M72.1329 147.892C72.1329 147.892 73.4382 146.383 73.992 146.132" stroke="#303030" stroke-width="2" stroke-linecap="round" stroke-linejoin="round"/>
<path d="M73.8521 148.981C73.8521 148.981 75.1574 147.473 75.7112 147.222" stroke="#303030" stroke-width="2" stroke-linecap="round" stroke-linejoin="round"/>
<path d="M75.5468 149.819C75.5468 149.819 76.8522 148.311 77.4059 148.06" stroke="#303030" stroke-width="2" stroke-linecap="round" stroke-linejoin="round"/>
<path d="M21.1368 108.589C19.2746 108.589 17.7624 107.072 17.7624 105.196V58.5405C17.7624 56.6678 19.2716 55.147 21.1368 55.147C22.9989 55.147 24.5112 56.6647 24.5112 58.5405V105.196C24.5112 107.069 22.9989 108.589 21.1368 108.589Z" fill="#45D62F" stroke="#303030" stroke-width="2" stroke-linecap="round" stroke-linejoin="round"/>
</svg>
