<svg width="144" height="153" viewBox="0 0 144 153" fill="none" xmlns="http://www.w3.org/2000/svg">
<path d="M63.8837 81.7674C65.0793 82.8112 69.916 85.171 71.213 85.3818C72.51 85.5893 78.3262 79.0573 79.9339 75.2422C81.5416 71.4271 82.7373 56.3231 82.4772 54.2829C82.2171 52.2461 79.9846 47.9584 79.9846 47.9584C79.9846 47.9584 78.0627 46.6527 77.0258 47.2783C75.9889 47.904 74.2731 48.1148 73.9117 51.1445C73.5469 54.1775 72.1452 57.7818 72.1452 57.7818C72.1452 57.7818 70.7942 59.2983 70.068 60.655C69.3418 62.0151 68.2002 64.3137 68.2002 64.3137C68.2002 64.3137 67.42 61.0223 66.0723 59.6622" fill="#E72A8B"/>
<path d="M63.8837 81.7674C65.0793 82.8112 69.916 85.171 71.213 85.3818C72.51 85.5893 78.3262 79.0573 79.9339 75.2422C81.5416 71.4271 82.7373 56.3231 82.4772 54.2829C82.2171 52.2461 79.9846 47.9584 79.9846 47.9584C79.9846 47.9584 78.0627 46.6527 77.0258 47.2783C75.9889 47.904 74.2731 48.1148 73.9117 51.1445C73.5469 54.1775 72.1452 57.7818 72.1452 57.7818C72.1452 57.7818 70.7942 59.2983 70.068 60.655C69.3418 62.0151 68.2002 64.3137 68.2002 64.3137C68.2002 64.3137 67.42 61.0223 66.0723 59.6622" stroke="#303030" stroke-width="2" stroke-miterlimit="10" stroke-linecap="round" stroke-linejoin="round"/>
<path d="M64.4477 23.9525C66.578 23.9525 68.3049 22.214 68.3049 20.0694C68.3049 17.9248 66.578 16.1863 64.4477 16.1863C62.3174 16.1863 60.5905 17.9248 60.5905 20.0694C60.5905 22.214 62.3174 23.9525 64.4477 23.9525Z" stroke="#303030" stroke-width="2" stroke-miterlimit="10" stroke-linecap="round" stroke-linejoin="round"/>
<path d="M52.7411 23.9525C54.8714 23.9525 56.5983 22.214 56.5983 20.0694C56.5983 17.9248 54.8714 16.1863 52.7411 16.1863C50.6108 16.1863 48.8839 17.9248 48.8839 20.0694C48.8839 22.214 50.6108 23.9525 52.7411 23.9525Z" stroke="#303030" stroke-width="2" stroke-miterlimit="10" stroke-linecap="round" stroke-linejoin="round"/>
<path d="M60.5501 19.2703H56.5983" stroke="#303030" stroke-width="2" stroke-miterlimit="10" stroke-linecap="round" stroke-linejoin="round"/>
<path d="M48.938 18.801C48.8907 18.6616 44.2736 16.2202 44.2736 16.2202" stroke="#303030" stroke-width="2" stroke-miterlimit="10" stroke-linecap="round" stroke-linejoin="round"/>
<path d="M63.4179 19.9303C63.7409 19.9303 64.0026 19.6668 64.0026 19.3417C64.0026 19.0167 63.7409 18.7532 63.4179 18.7532C63.095 18.7532 62.8333 19.0167 62.8333 19.3417C62.8333 19.6668 63.095 19.9303 63.4179 19.9303Z" fill="#303030"/>
<path d="M52.1571 19.9303C52.48 19.9303 52.7418 19.6668 52.7418 19.3417C52.7418 19.0167 52.48 18.7532 52.1571 18.7532C51.8342 18.7532 51.5724 19.0167 51.5724 19.3417C51.5724 19.6668 51.8342 19.9303 52.1571 19.9303Z" fill="#303030"/>
<path d="M59.9893 25.0439C59.9893 25.0439 58.3579 25.7005 57.1454 25.1834" stroke="#303030" stroke-width="2" stroke-miterlimit="10" stroke-linecap="round" stroke-linejoin="round"/>
<path d="M60.0265 30.6544L53.7104 27.8152C53.7104 27.8152 53.4199 30.4062 55.1188 31.5045C58.108 33.4358 60.0265 30.6544 60.0265 30.6544Z" stroke="#303030" stroke-width="2" stroke-miterlimit="10" stroke-linecap="round" stroke-linejoin="round"/>
<path d="M65.6806 15.0442C65.6806 15.0442 63.3501 13.9623 62.0903 14.5747" stroke="#303030" stroke-width="2" stroke-miterlimit="10" stroke-linecap="round" stroke-linejoin="round"/>
<path d="M55.2337 13.5889C55.2337 13.5889 52.9032 12.507 51.6434 13.1194" stroke="#303030" stroke-width="2" stroke-miterlimit="10" stroke-linecap="round" stroke-linejoin="round"/>
<path d="M44.976 25.5097C44.976 25.5097 47.7895 37.4039 55.1019 38.424C60.0332 39.1108 65.9 35.0033 68.4974 24.0646C70.6354 15.0607 68.3218 8.57634 59.4354 7.44065C50.549 6.30495 45.1448 11.0075 44.4693 14.0678C43.7938 17.128 44.3444 18.546 44.3444 18.546C44.3444 18.546 42.9494 17.6347 41.3181 19.277C39.6867 20.9193 42.6691 25.2241 42.6691 25.2241L42.2334 35.7072" stroke="#303030" stroke-width="2" stroke-miterlimit="10" stroke-linecap="round" stroke-linejoin="round"/>
<path d="M42.6353 19.515C44.2093 19.7973 45.736 18.8044 46.1176 17.2402C46.4824 15.7509 46.9485 14.0066 47.3808 12.9219C48.2556 10.7219 50.2653 10.5451 56.0342 11.1606C61.8031 11.776 67.1025 11.4326 68.1327 14.9111C68.5751 16.4038 68.0719 25.7137 68.0719 25.7137C68.0719 25.7137 69.8924 21.5824 70.6793 17.5361C71.4663 13.4897 70.7368 12.0548 70.7368 10.1099C70.7368 9.94666 72.1182 8.89597 72.868 6.68919C73.6955 4.26139 73.8982 0.667295 73.8982 0.667295C73.8982 0.667295 69.8451 3.2447 63.9006 1.66018C63.1642 1.46296 62.2523 1.21134 61.2188 0.959719C56.0848 -0.281382 47.9449 -1.42728 43.3615 5.09105C38.5552 11.929 41.3181 19.2804 41.3181 19.2804L42.6353 19.515Z" fill="#303030"/>
<path d="M84.1457 114.645L80.8188 113.74" stroke="#303030" stroke-width="2" stroke-miterlimit="10" stroke-linecap="round" stroke-linejoin="round"/>
<path d="M137.991 94.7361L76.4146 97.4495L69.5817 82.4271L120.911 82.0667L137.991 94.7361Z" fill="#347CE1"/>
<path d="M134.843 118.718L137.991 94.7358L76.4145 97.4493L76.1443 121.703L134.843 118.718Z" fill="#DBEAFE"/>
<path d="M69.5817 82.4268L68.4131 108.038L76.1444 121.703L76.4146 97.4492L69.5817 82.4268Z" fill="#DBEAFE"/>
<path d="M97.5486 98.4561L96.4536 118.477" stroke="#303030" stroke-width="2" stroke-miterlimit="10" stroke-linecap="round" stroke-linejoin="round"/>
<path d="M100.849 98.3979L99.7535 118.419" stroke="#303030" stroke-width="2" stroke-miterlimit="10" stroke-linecap="round" stroke-linejoin="round"/>
<path d="M104.148 98.3398L103.053 118.361" stroke="#303030" stroke-width="2" stroke-miterlimit="10" stroke-linecap="round" stroke-linejoin="round"/>
<path d="M107.448 98.2825L106.353 118.303" stroke="#303030" stroke-width="2" stroke-miterlimit="10" stroke-linecap="round" stroke-linejoin="round"/>
<path d="M110.748 98.2246L109.653 118.245" stroke="#303030" stroke-width="2" stroke-miterlimit="10" stroke-linecap="round" stroke-linejoin="round"/>
<path d="M114.048 98.167L112.953 118.188" stroke="#303030" stroke-width="2" stroke-miterlimit="10" stroke-linecap="round" stroke-linejoin="round"/>
<path d="M117.348 98.1091L116.253 118.13" stroke="#303030" stroke-width="2" stroke-miterlimit="10" stroke-linecap="round" stroke-linejoin="round"/>
<path d="M120.648 98.0515L119.553 118.072" stroke="#303030" stroke-width="2" stroke-miterlimit="10" stroke-linecap="round" stroke-linejoin="round"/>
<path d="M137.819 121.557L79.3767 117.073L74.6075 143.884L143 149.515L137.819 121.557Z" fill="white" stroke="#303030" stroke-width="2" stroke-miterlimit="10" stroke-linecap="round" stroke-linejoin="round"/>
<path d="M119.188 126.376L120.178 145.608L140.281 147.379L137.147 127.848L119.188 126.376Z" stroke="#303030" stroke-width="2" stroke-miterlimit="10" stroke-linecap="round" stroke-linejoin="round"/>
<path d="M118.317 145.608L77.3298 142.099L79.5488 127.811L117.84 130.925L118.317 145.608Z" stroke="#303030" stroke-width="2" stroke-miterlimit="10" stroke-linecap="round" stroke-linejoin="round"/>
<path d="M119.424 121.667L135.836 123.024" stroke="#303030" stroke-width="2" stroke-miterlimit="10" stroke-linecap="round" stroke-linejoin="round"/>
<path d="M119.664 122.941L136.073 124.299" stroke="#303030" stroke-width="2" stroke-miterlimit="10" stroke-linecap="round" stroke-linejoin="round"/>
<path d="M119.742 124.142L136.154 125.499" stroke="#303030" stroke-width="2" stroke-miterlimit="10" stroke-linecap="round" stroke-linejoin="round"/>
<path d="M143 149.515L142.628 152L74.5163 146.641L74.6075 143.884" stroke="#303030" stroke-width="2" stroke-miterlimit="10" stroke-linecap="round" stroke-linejoin="round"/>
<path d="M86.9761 139.385L111.072 141.388" stroke="#303030" stroke-width="2" stroke-miterlimit="10" stroke-linecap="round" stroke-linejoin="round"/>
<path d="M80.4 135.798L115.817 138.708" stroke="#303030" stroke-width="2" stroke-miterlimit="10" stroke-linecap="round" stroke-linejoin="round"/>
<path d="M80.4676 133.068L115.885 135.978" stroke="#303030" stroke-width="2" stroke-miterlimit="10" stroke-linecap="round" stroke-linejoin="round"/>
<path d="M80.5317 130.228L115.949 133.139" stroke="#303030" stroke-width="2" stroke-miterlimit="10" stroke-linecap="round" stroke-linejoin="round"/>
<path d="M53.7138 47.7511C53.7138 47.7511 43.3852 37.557 42.0949 35.5305C40.8047 33.5039 40.0008 31.7188 40.0008 31.7188C40.0008 31.7188 37.5048 34.7178 37.5048 36.7444C37.5048 38.7709 41.8315 42.229 44.9389 43.9223C48.3131 45.7619 53.7138 47.7511 53.7138 47.7511Z" fill="#E72A8B" stroke="#303030" stroke-width="2" stroke-miterlimit="10" stroke-linecap="round" stroke-linejoin="round"/>
<path d="M54.0955 47.6082L57.7128 43.8951L57.7196 41.8516C57.7196 41.8516 58.8477 42.7424 59.2496 44.2012C59.655 45.6633 54.0955 47.6082 54.0955 47.6082Z" fill="#E72A8B" stroke="#303030" stroke-width="2" stroke-miterlimit="10" stroke-linecap="round" stroke-linejoin="round"/>
<path d="M37.6872 35.3196C37.444 35.6426 17.2698 48.6725 13.8854 53.5349C10.5011 58.3973 8.88326 82.614 6.68446 94.43C4.48566 106.246 1 118.429 1 118.429" stroke="#303030" stroke-width="2" stroke-miterlimit="10" stroke-linecap="round" stroke-linejoin="round"/>
<path d="M59.2497 44.2046C59.2497 44.2046 66.3662 46.714 66.0724 59.6657C65.7785 72.6173 57.3447 124.176 57.3447 124.176" stroke="#303030" stroke-width="2" stroke-miterlimit="10" stroke-linecap="round" stroke-linejoin="round"/>
<path d="M57.6487 43.8608L57.8177 38.2776" stroke="#303030" stroke-width="2" stroke-miterlimit="10" stroke-linecap="round" stroke-linejoin="round"/>
<path d="M40.0042 31.7191C40.0042 31.7191 40.7507 31.0012 42.2503 31.304" stroke="#303030" stroke-width="2" stroke-miterlimit="10" stroke-linecap="round" stroke-linejoin="round"/>
<path d="M68.1157 64.0586C68.1157 64.0586 69.6974 67.1903 69.2614 71.308" stroke="#303030" stroke-width="2" stroke-miterlimit="10" stroke-linecap="round" stroke-linejoin="round"/>
<path d="M66.4304 103.594C66.4304 103.594 71.8311 98.0852 74.0772 97.2692C76.3233 96.4531 80.5554 96.7353 81.4471 96.1845C82.6157 95.4602 83.8756 94.6476 84.5038 95.008C85.132 95.3684 85.132 97.089 83.6054 98.3573C82.0787 99.6256 79.8292 100.166 79.8292 100.166C79.8292 100.166 80.8189 101.251 82.8859 101.343C84.953 101.435 89.3574 101.887 91.2454 102.791C93.1335 103.696 93.1335 104.42 92.9545 105.236C92.7755 106.052 91.5156 105.78 89.81 105.688C88.1009 105.596 83.1595 105.596 83.1595 105.596C83.1595 105.596 82.7103 107.133 86.0372 107.589C89.3641 108.041 92.5998 109.398 92.9579 110.394C93.3159 111.391 92.2384 111.931 92.2384 111.931L81.8963 110.571C81.8963 110.571 88.9993 113.016 89.3574 113.92C89.7154 114.825 88.3677 115.913 87.5605 115.821C86.7533 115.729 84.1458 114.645 84.1458 114.645C84.1458 114.645 84.1458 116.001 83.2473 116.093C82.3489 116.185 79.8326 115.097 77.4041 114.556C74.9757 114.012 70.8415 113.924 68.9534 112.747C67.0654 111.571 65.6265 111.751 65.6265 111.751" fill="white"/>
<path d="M66.4304 103.594C66.4304 103.594 71.8311 98.0852 74.0772 97.2692C76.3233 96.4531 80.5554 96.7353 81.4471 96.1845C82.6157 95.4602 83.8756 94.6476 84.5038 95.008C85.132 95.3684 85.132 97.089 83.6054 98.3573C82.0787 99.6256 79.8292 100.166 79.8292 100.166C79.8292 100.166 80.8189 101.251 82.8859 101.343C84.953 101.435 89.3574 101.887 91.2454 102.791C93.1335 103.696 93.1335 104.42 92.9545 105.236C92.7755 106.052 91.5156 105.78 89.81 105.688C88.1009 105.596 83.1595 105.596 83.1595 105.596C83.1595 105.596 82.7103 107.133 86.0372 107.589C89.3641 108.041 92.5998 109.398 92.9579 110.394C93.3159 111.391 92.2384 111.931 92.2384 111.931L81.8963 110.571C81.8963 110.571 88.9993 113.016 89.3574 113.92C89.7154 114.825 88.3677 115.913 87.5605 115.821C86.7533 115.729 84.1458 114.645 84.1458 114.645C84.1458 114.645 84.1458 116.001 83.2473 116.093C82.3489 116.185 79.8326 115.097 77.4041 114.556C74.9757 114.012 70.8415 113.924 68.9534 112.747C67.0654 111.571 65.6265 111.751 65.6265 111.751" stroke="#303030" stroke-width="2" stroke-miterlimit="10" stroke-linecap="round" stroke-linejoin="round"/>
<path d="M66.3797 101.071C66.3797 101.499 67.089 105.059 66.5215 108.051C65.9541 111.044 64.6808 114.747 64.6808 114.747C64.6808 114.747 21.2316 121.16 17.4116 118.025C13.5916 114.889 8.75489 90.2612 8.33607 80.1556C7.69095 64.5959 12.3317 54.7487 13.8888 53.7491C15.4459 52.7528 27.6018 57.0473 31.5636 69.727C35.5255 82.4066 33.7658 98.0377 33.7658 98.0377L66.3797 101.071Z" fill="#E72A8B" stroke="#303030" stroke-width="2" stroke-miterlimit="10" stroke-linecap="round" stroke-linejoin="round"/>
<path d="M31.8811 104.502C34.6946 100.374 33.7658 98.0376 33.7658 98.0376C33.7658 98.0376 33.4078 99.4045 28.9865 101.832C24.5653 104.26 23.2007 104.502 23.2007 104.502" stroke="#303030" stroke-width="2" stroke-miterlimit="10" stroke-linecap="round" stroke-linejoin="round"/>
<path d="M84.1457 114.644L77.8297 112.091" stroke="#303030" stroke-width="2" stroke-miterlimit="10" stroke-linecap="round" stroke-linejoin="round"/>
<path d="M88.9994 55.0071L132.685 54.9153L129 92.5598C129 92.5598 86.6621 94.0967 86.6621 93.8281C86.6621 93.5594 88.9994 55.0071 88.9994 55.0071Z" fill="#DBEAFE"/>
<path d="M132.685 54.9188L118.661 51.0254L81.3593 50.7534L78.8396 86.4087L86.6621 93.8315L88.9993 55.0072L132.685 54.9188Z" fill="#DBEAFE"/>
<path d="M91.4245 57.3602L130.439 57.0881L127.473 86.861L89.3574 87.405L91.4245 57.3602Z" fill="white"/>
<path d="M94.3021 60.7095H126.305L123.876 83.5151L93.3125 83.8756L94.3021 60.7095Z" fill="#45D62F"/>
<path d="M123.91 91.7742C124.962 91.7742 125.815 90.9156 125.815 89.8565C125.815 88.7973 124.962 87.9387 123.91 87.9387C122.858 87.9387 122.005 88.7973 122.005 89.8565C122.005 90.9156 122.858 91.7742 123.91 91.7742Z" fill="#347CE1"/>
<path d="M80.4034 54.9833C80.4034 54.9833 82.7474 54.4835 84.3822 55.1261C86.0169 55.7688 93.1234 55.4118 94.5419 54.9119C95.9639 54.4121 95.7511 52.6949 95.7511 52.6949C95.7511 52.6949 98.8787 54.6263 101.436 55.1261C103.992 55.626 104.492 55.0547 104.492 55.0547C104.492 55.0547 106.056 55.3404 106.553 55.1261C107.049 54.9119 107.475 54.4835 107.475 54.4835C107.475 54.4835 108.613 54.7691 108.968 54.2693C109.322 53.7694 109.393 52.6235 107.829 52.1237C106.265 51.6238 99.382 47.6387 98.5984 47.2103C97.8182 46.7819 94.4001 45.1837 93.3328 45.1123C92.2654 45.0409 84.7335 45.2551 83.2439 45.6122C81.7544 45.9692 75.712 49.4749 75.712 49.4749C75.712 49.4749 75.2121 52.2291 76.5158 53.494C77.8162 54.7589 80.4034 54.9833 80.4034 54.9833Z" fill="white" stroke="#303030" stroke-width="2" stroke-miterlimit="10" stroke-linecap="round" stroke-linejoin="round"/>
<path d="M104.492 55.0547C104.492 55.0547 100.851 52.6031 98.1492 51.1682" stroke="#303030" stroke-width="2" stroke-miterlimit="10" stroke-linecap="round" stroke-linejoin="round"/>
<path d="M95.7511 52.6919C95.7511 52.6919 95.1499 51.8074 91.9581 51.8074C88.7663 51.8074 87.5841 51.8584 87.5841 51.8584" stroke="#303030" stroke-width="2" stroke-miterlimit="10" stroke-linecap="round" stroke-linejoin="round"/>
<path d="M107.475 54.4801L102.405 51.3042" stroke="#303030" stroke-width="2" stroke-miterlimit="10" stroke-linecap="round" stroke-linejoin="round"/>
</svg>
