<svg width="192" height="112" viewBox="0 0 192 112" fill="none" xmlns="http://www.w3.org/2000/svg">
<path d="M18.6752 74.1921C5.47142 79.1558 -5.92695 63.1168 3.41413 52.5379C3.58848 52.3401 5.13435 50.0172 5.28158 49.8039C7.33499 46.8141 8.45855 43.6691 9.04745 41.5091C9.19468 40.9662 9.98505 41.0205 10.0587 41.5789C10.3609 43.8979 10.6437 47.0972 10.2059 48.819C9.76421 50.5524 10.1323 52.0337 11.3527 51.5296C12.577 51.0255 17.7531 49.2998 18.3227 41.9279C18.5629 38.8488 22.0033 34.2341 24.3706 31.3955C24.8432 30.8293 25.7498 31.3257 25.5329 32.0315C24.7929 34.4358 23.9444 37.6467 24.0296 39.574C24.1807 42.9478 23.8514 47.4772 26.9392 48.4932C30.0271 49.5092 29.969 53.0691 31.7396 53.1971C33.5102 53.3251 39.4341 48.0201 39.775 43.2929C40.1198 38.5696 40.2128 31.8453 43.7617 26.5636C45.4316 24.0779 47.0782 21.3285 48.349 19.1103C48.7674 18.3774 49.8793 18.7574 49.7786 19.595C49.519 21.7473 49.5578 23.9616 50.6194 24.6867C52.8781 26.2379 56.3999 18.6217 55.1252 14.3715C54.393 11.9207 54.823 7.89926 55.3228 4.92879C55.4662 4.06789 56.6711 3.96707 56.9462 4.79694C57.8373 7.46106 59.604 10.9861 63.0406 13.2663C68.4685 16.865 68.6894 20.8592 69.2434 26.839C69.7974 32.8148 68.7978 37.7281 68.7978 37.7281C68.7978 37.7281 71.5022 37.2434 73.1604 33.9472C74.2065 31.8725 74.9658 27.8666 75.3881 25.1831C75.5044 24.4502 76.5156 24.3455 76.779 25.0396C77.4648 26.8506 78.3946 29.4372 79.2005 32.1633C80.5139 36.5919 78.3946 40.3729 76.1863 43.576C73.9779 46.7792 66.8723 54.4303 60.0534 55.7139C53.2345 56.9975 46.7915 59.1536 42.1267 62.4653C35.4745 67.2002 26.7882 71.1441 18.6752 74.1921Z" fill="#E72A8B"/>
<path d="M42.0648 58.6958C42.0648 58.6958 46.7217 46.969 46.1328 43.8551C45.5439 40.7411 46.0476 31.6474 46.7217 30.0497C47.3959 28.452 48.1514 26.4316 48.1514 26.4316C48.1514 26.4316 47.4772 31.2286 49.9181 36.3668C52.3589 41.5012 52.3589 43.4363 52.3589 43.4363C52.3589 43.4363 53.622 41.7533 54.0404 38.554C54.4588 35.3547 55.8071 31.6513 55.8071 31.6513C55.8071 31.6513 57.2367 38.8061 58.1627 41.5012C59.0887 44.1963 58.0775 47.6477 58.0775 47.6477C58.0775 47.6477 59.7396 46.7596 60.5183 44.9525C60.7934 44.3166 61.1072 42.3427 61.1072 42.3427C61.1072 42.3427 62.1146 46.2982 60.1813 48.6559C58.248 51.0137 54.2922 52.1073 50.8441 53.2862C47.392 54.4612 42.0648 58.6958 42.0648 58.6958Z" fill="white"/>
<path d="M19.4618 71.0317C20.6241 70.5431 22.5225 69.6783 23.5376 67.9681C24.5527 66.258 24.5527 62.3568 24.5527 62.3568C24.5527 62.3568 23.1657 63.6404 22.9487 64.6564C22.7356 65.6724 21.5074 66.8474 21.5074 66.8474C21.5074 66.8474 21.1355 64.8697 21.7205 63.0005C22.3055 61.1314 20.7597 58.0291 20.7597 58.0291C20.7597 58.0291 21.027 60.9685 20.3335 62.2521C19.64 63.5357 17.8229 64.8697 17.5013 66.6341C17.1798 68.3986 15.3433 72.0244 15.3433 72.0244C15.3433 72.0244 17.5246 71.846 19.4618 71.0317Z" fill="white"/>
<path d="M169.357 85.8025L176.9 94.0857L148.296 103.21L143.476 94.6131L169.357 85.8025Z" fill="white" stroke="#303030" stroke-width="2" stroke-miterlimit="10" stroke-linecap="round" stroke-linejoin="round"/>
<path d="M141.295 76.5733L139.594 98.2624L172.453 97.8359L171.178 75.0105L141.295 76.5733Z" fill="white" stroke="#303030" stroke-width="2" stroke-miterlimit="10" stroke-linecap="round" stroke-linejoin="round"/>
<path d="M53.7653 56.9276L40.3135 52.6309L22.3365 70.508L39.3837 73.874L53.7653 56.9276Z" fill="white" stroke="#303030" stroke-width="2" stroke-miterlimit="10" stroke-linecap="round" stroke-linejoin="round"/>
<path d="M62.9282 51.7043L31.8442 64.5906C31.8442 64.5906 58.9841 80.7266 59.1004 80.3776C59.2166 80.0286 72.4398 70.3959 72.4398 70.3959L62.9282 51.7043Z" fill="white" stroke="#303030" stroke-width="2" stroke-miterlimit="10" stroke-linecap="round" stroke-linejoin="round"/>
<path d="M72.184 43.9909C72.184 43.9909 62.1494 52.8752 56.4541 59.2079C50.7588 65.5405 48.3567 68.0728 48.3567 68.0728C48.3567 68.0728 43.1961 68.5614 39.6704 70.7795C36.1409 72.9938 31.449 76.1698 29.3762 78.1088C27.2996 80.0477 28.8106 81.4438 28.8106 81.4438C28.8106 81.4438 28.0512 83.1074 28.396 84.0071C28.7408 84.9067 29.5041 85.1162 29.5041 85.1162C29.5041 85.1162 28.5859 86.8729 29.5893 87.5941C30.5308 88.2767 32.2045 87.5399 32.2045 87.5399C32.2045 87.5399 31.7086 88.8234 32.2587 89.378C32.8089 89.9325 34.1068 89.8899 35.9743 88.4357C37.8417 86.9814 42.2585 83.247 42.2585 83.247C42.2585 83.247 45.4161 80.4084 47.0782 80.4084C48.7403 80.4084 48.7403 80.4084 48.7403 80.4084C48.7403 80.4084 48.7248 81.8975 47.7058 83.088C46.3614 84.6586 45.2107 86.9155 45.3502 87.9548C45.4897 88.9941 46.3459 89.6921 46.3459 89.6921C46.3459 89.6921 49.9181 86.8457 51.371 85.186C52.8239 83.5262 54.6874 80.548 54.9664 79.3691C55.2453 78.1902 55.3112 73.2071 55.7258 72.1678C56.1403 71.1285 85.9574 52.2935 85.9574 52.2935C85.9574 52.2935 86.8562 47.1708 84.5742 44.8169C82.2922 42.463 72.184 43.9909 72.184 43.9909Z" fill="white" stroke="#303030" stroke-width="2" stroke-miterlimit="10" stroke-linecap="round" stroke-linejoin="round"/>
<path d="M28.8067 81.4399C28.8067 81.4399 32.8283 78.3648 36.4392 76.0613" stroke="#303030" stroke-width="2" stroke-miterlimit="10" stroke-linecap="round" stroke-linejoin="round"/>
<path d="M29.4963 85.1123C29.4963 85.1123 35.4977 79.5204 38.2175 78.0002" stroke="#303030" stroke-width="2" stroke-miterlimit="10" stroke-linecap="round" stroke-linejoin="round"/>
<path d="M32.1968 87.5362C32.1968 87.5362 39.0079 81.1454 40.9451 79.9937" stroke="#303030" stroke-width="2" stroke-miterlimit="10" stroke-linecap="round" stroke-linejoin="round"/>
<path d="M121.377 23.442V11.3468C121.377 5.08006 126.936 0 133.798 0H161.624C168.485 0 174.045 5.08006 174.045 11.3468V56.1521L121.377 23.442Z" fill="#FF9504"/>
<path d="M160.969 65.4127C160.969 65.4127 140.497 85.38 139.455 85.9035C138.412 86.427 130.121 85.3141 127.266 86.9699C124.407 88.6258 116.212 93.2909 116.135 93.671C116.061 94.0471 118.014 95.7767 118.467 95.8542C118.917 95.9279 112.601 102.102 112.601 102.326C112.601 102.551 114.256 103.68 115.608 103.23C116.96 102.78 118.765 101.349 118.765 101.349C118.765 101.349 115.143 107.515 115.143 108.011C115.143 108.512 118.006 109.008 119.292 107.845C120.579 106.681 123.151 102.237 123.151 102.237L125.642 101.446L122.206 109.031C122.206 109.031 123.93 109.632 125.464 108.469C126.998 107.306 129.416 103.195 129.416 103.195C129.416 103.195 128.339 107.93 128.792 108.139C129.249 108.349 130.768 107.6 131.958 105.894C133.341 103.909 133.523 102.117 133.523 102.117C133.523 102.117 139.54 100.663 142.57 97.3821C145.599 94.1014 147.757 91.5653 147.757 91.5653C147.757 91.5653 161.135 84.9922 167.098 81.4284C173.061 77.8646 175.846 75.5379 175.846 75.5379C175.846 75.5379 181.499 75.9257 183.587 70.4229C185.68 64.9202 181.573 58.3355 181.573 58.3355C181.573 58.3355 180.798 47.9504 177.47 40.5126C174.142 33.0748 163.844 22.0693 154.708 19.1221C145.572 16.1787 128.331 16.0042 118.111 21.1153C107.89 26.2303 103.915 31.3646 103.915 31.3646C103.915 31.3646 97.255 32.4504 91.9161 34.6957C86.5734 36.9449 83.6327 38.9576 83.6327 38.9576C83.6327 38.9576 81.0795 38.0269 78.9099 38.182C77.3524 38.2945 74.3575 40.6057 72.7923 41.897C72.1801 42.405 71.936 43.2349 72.1724 43.995C72.1724 43.995 78.445 43.4521 81.6181 46.3217C84.7912 49.1875 84.7059 52.5535 84.7059 52.5535L108.475 56.0902C108.475 56.0902 122.07 58.6186 124.775 57.5793C127.479 56.54 131.528 52.8754 131.528 52.8754C131.528 52.8754 138.145 55.2176 144.538 55.9855C149.702 56.602 152.077 57.2497 152.077 57.2497C152.077 57.2497 152.631 57.7344 154.851 59.5376C157.071 61.3409 158.179 61.6201 158.179 61.6201L160.969 65.4127Z" fill="white" stroke="#303030" stroke-width="2" stroke-miterlimit="10" stroke-linecap="round" stroke-linejoin="round"/>
<path d="M147.908 66.409L124.019 62.1162L108.56 71.1672L115.747 87.2606L147.908 66.409Z" fill="white" stroke="#303030" stroke-width="2" stroke-miterlimit="10" stroke-linecap="round" stroke-linejoin="round"/>
<path d="M117.607 80.9864L131.353 72.6295L119.006 69.9343L110.87 74.4133L112.26 79.5942L117.607 80.9864Z" fill="#A7CCE9"/>
<path d="M124.112 63.7488L131.45 65.1836L125.348 69.3213L118.394 67.8477L124.112 63.7488Z" fill="#A7CCE9"/>
<path d="M117.743 89.4555L147.947 70.1202V66.5913L116.294 86.5044L117.743 89.4555Z" fill="white" stroke="#303030" stroke-width="2" stroke-miterlimit="10" stroke-linecap="round" stroke-linejoin="round"/>
<path d="M127.63 54.6243C127.63 54.6243 128.37 57.8468 126.785 61.4261C125.724 63.8304 123.984 65.8314 122.586 66.3937C122.586 66.3937 119.525 67.3593 120.277 63.7606C121.032 60.158 127.63 54.6243 127.63 54.6243Z" fill="white" stroke="#303030" stroke-width="2" stroke-miterlimit="10" stroke-linecap="round" stroke-linejoin="round"/>
<path d="M113.469 73.8859C113.469 73.8859 117.692 72.8738 120.563 70.4384C123.5 67.9488 124.422 66.2619 124.422 66.2619L122.128 65.4282C122.128 65.4282 123.279 62.0544 125.468 59.9642C127.657 57.874 128.599 55.7916 128.878 51.9253C129.28 46.3179 125.945 40.5592 123.589 39.3221C120.284 37.5887 114.972 37.7438 114.972 37.7438C114.972 37.7438 106.348 39.8146 102.156 42.2965C97.964 44.7783 95.4844 48.5477 95.4844 48.5477V46.5777C95.4844 46.5777 93.8611 46.663 93.0901 48.9742C92.3191 51.2855 92.3927 53.7053 92.3927 53.7053L108.483 56.0824L113.469 73.8859Z" fill="#303030"/>
<path d="M158.187 61.6122C158.187 61.6122 158.086 57.6296 161.279 55.9932" stroke="#303030" stroke-width="2" stroke-miterlimit="10" stroke-linecap="round" stroke-linejoin="round"/>
<path d="M152.085 57.2418C152.085 57.2418 150.353 55.5782 149.45 51.3435" stroke="#303030" stroke-width="2" stroke-miterlimit="10" stroke-linecap="round" stroke-linejoin="round"/>
<path d="M160.969 65.4126C160.969 65.4126 166.029 60.6389 173.661 64.4159C180.194 67.6501 175.85 75.53 175.85 75.53" stroke="#303030" stroke-width="2" stroke-miterlimit="10" stroke-linecap="round" stroke-linejoin="round"/>
<path d="M118.436 96.0286C118.436 96.0286 121.753 93.3529 124.376 92.0266" stroke="#303030" stroke-width="2" stroke-miterlimit="10" stroke-linecap="round" stroke-linejoin="round"/>
<path d="M118.769 101.345C118.769 101.345 121.261 98.2818 122.384 97.4946C123.508 96.7074 126.615 94.2876 126.615 94.2876" stroke="#303030" stroke-width="2" stroke-miterlimit="10" stroke-linecap="round" stroke-linejoin="round"/>
<path d="M125.646 101.446C125.646 101.446 127.739 98.7317 129.835 96.8586" stroke="#303030" stroke-width="2" stroke-miterlimit="10" stroke-linecap="round" stroke-linejoin="round"/>
<path d="M129.424 103.187C129.424 103.187 130.846 100.64 132.117 99.2551" stroke="#303030" stroke-width="2" stroke-miterlimit="10" stroke-linecap="round" stroke-linejoin="round"/>
<path d="M114.837 41.6915L121.016 37.4374C121.016 37.4374 126.348 34.5756 130.447 38.9692C136.126 45.0537 133.62 50.9946 133.62 50.9946L131.535 52.8715" stroke="#303030" stroke-width="2" stroke-miterlimit="10" stroke-linecap="round" stroke-linejoin="round"/>
<path d="M83.6405 38.9536C83.6405 38.9536 89.0298 41.5634 90.3858 46.9925C91.6605 52.0881 90.9398 53.4725 90.9398 53.4725" stroke="#303030" stroke-width="2" stroke-miterlimit="10" stroke-linecap="round" stroke-linejoin="round"/>
<path d="M103.965 35.8667C103.965 35.8667 103.481 38.2322 104.609 43.2347" stroke="#303030" stroke-width="2" stroke-miterlimit="10" stroke-linecap="round" stroke-linejoin="round"/>
<path d="M181.584 58.3276C181.584 58.3276 177.904 52.8481 165.978 54.6048" stroke="#303030" stroke-width="2" stroke-miterlimit="10" stroke-linecap="round" stroke-linejoin="round"/>
<path d="M156.238 39.1357C156.238 39.1357 166.246 33.8152 173.673 38.589" stroke="#303030" stroke-width="2" stroke-miterlimit="10" stroke-linecap="round" stroke-linejoin="round"/>
<path d="M108.483 56.0862L117.743 89.4556L68.0308 81.4012L59.2127 48.7454L108.483 56.0862Z" fill="#3B82F6" stroke="#303030" stroke-width="2" stroke-miterlimit="10" stroke-linecap="round" stroke-linejoin="round"/>
<path d="M161.693 107.782C158.404 103.42 161.507 96.5404 165.134 92.7051C168.76 88.8699 176.765 83.8751 178.934 81.5678C180.666 79.7257 182.011 77.1974 182.847 75.3515C183.095 74.8086 183.905 74.9831 183.909 75.5803C183.913 78.1591 183.731 82.0176 182.712 84.3637C181.077 88.1214 181.491 89.1413 181.491 89.1413C181.491 89.1413 182.193 90.6459 183.615 87.9004C184.262 86.6517 184.947 86.0312 185.556 85.7404C186.237 85.4146 187.005 86.0661 186.811 86.7991C186.606 87.5824 186.524 88.8311 187.024 90.7002C188.031 94.4657 187.958 98.1419 187.958 98.1419L189.965 94.7798C190.205 94.3765 190.801 94.4153 190.98 94.8496C191.646 96.4744 192.669 99.8482 191.387 103.102C188.934 109.337 183.518 111.176 176.098 111.877C172.259 112.238 164.913 112.052 161.693 107.782Z" fill="#E72A8B"/>
<path d="M168.334 109.877C169.493 110.117 172.003 109.535 172.352 107.383C172.801 104.634 171.333 100.065 171.875 97.6689C172.902 93.1279 175.409 89.6455 175.409 89.6455C175.409 89.6455 171.883 92.3096 170.577 95.4469C169.566 97.8744 168.373 99.9569 168.373 99.9569C168.373 99.9569 166.757 94.7062 166.842 95.7338C166.885 96.2457 167.09 97.762 165.572 100.038C163.975 102.419 163.708 104.703 164.708 107.115C165.173 108.232 166.757 109.551 168.334 109.877Z" fill="white"/>
</svg>
